<?xml version="1.0" encoding="UTF-8"?>
<svg width="14px" height="20px" viewBox="0 0 14 20" version="1.1" xmlns="http://www.w3.org/2000/svg" xmlns:xlink="http://www.w3.org/1999/xlink">
    <!-- Generator: Sketch 43.2 (39069) - http://www.bohemiancoding.com/sketch -->
    <title>right-arrow</title>
    <desc>Created with Sketch.</desc>
    <defs></defs>
    <g id="Page-1" stroke="none" stroke-width="1" fill="none" fill-rule="evenodd">
        <g id="right-arrow" fill-rule="nonzero" fill="#F43820">
            <path d="M0.0074028777,16.3212808 C0.0113309353,16.5668473 0.116330935,16.8095074 0.293848921,16.9832512 L3.06363309,19.6926108 C3.2448777,19.87 3.49969784,19.9732512 3.75607914,19.9732512 C4.01246043,19.9732512 4.26728058,19.87 4.44852518,19.6926108 L13.6785036,10.6639409 C13.8598489,10.4866502 13.9654029,10.2373892 13.9654029,9.98660099 C13.9654029,9.73581281 13.8598489,9.48655172 13.6785036,9.30926108 L4.44852518,0.280640394 C4.26728058,0.103251232 4.01246043,0 3.75607914,0 C3.49969784,0 3.2448777,0.103251232 3.06363309,0.280640394 L0.293848921,2.99 C0.113007194,3.16724138 0.00775539568,3.41615764 0.00775539568,3.66655172 C0.00775539568,3.91694581 0.113007194,4.16586207 0.293848921,4.34310345 L6.06315827,9.98660099 L0.293848921,15.6300985 C0.109330935,15.8107389 0.00352517986,16.0659606 0.0074028777,16.3212808 L0.0074028777,16.3212808 Z" id="Shape"></path>
        </g>
    </g>
</svg>