<?xml version="1.0" encoding="UTF-8"?>
<svg width="18px" height="25px" viewBox="0 0 18 25" version="1.1" xmlns="http://www.w3.org/2000/svg" xmlns:xlink="http://www.w3.org/1999/xlink">
    <!-- Generator: Sketch 43.2 (39069) - http://www.bohemiancoding.com/sketch -->
    <title>team</title>
    <desc>Created with Sketch.</desc>
    <defs></defs>
    <g id="Page-1" stroke="none" stroke-width="1" fill="none" fill-rule="evenodd">
        <g id="team" fill-rule="nonzero" fill="#000000">
            <path d="M17.4812419,0 L0.518758065,0 C0.246193548,0 0.0252580645,0.222949219 0.0252580645,0.497998047 L0.0252580645,24.502002 C0.0252580645,24.7770508 0.246193548,25 0.518758065,25 L13.4169194,25 C13.5478065,25 13.6732742,24.9475098 13.7658871,24.8541504 L17.8302581,20.7526855 C17.9227742,20.6593262 17.9747903,20.532666 17.9747903,20.4005371 L17.9747903,0.497998047 C17.9747903,0.222949219 17.7538065,0 17.4812419,0 Z M13.9095,23.3005859 L13.907371,20.895459 L16.2907742,20.8976563 L13.9095,23.3005859 Z M16.9877903,10.3589355 C16.7185161,10.3628418 16.5013548,10.5839844 16.5013548,10.8565918 C16.5013548,11.1291992 16.7185645,11.3503418 16.9877419,11.354248 L16.9877419,19.9022949 L13.4137742,19.8990234 L13.4133387,19.8990234 C13.2824516,19.8990234 13.1569839,19.9515137 13.064371,20.044873 C12.9717581,20.1383789 12.9197419,20.2652344 12.9198387,20.3974609 L12.9230806,24.0040039 L1.01225806,24.0040039 L1.01225806,11.3545898 L1.0545,11.3545898 C1.32706452,11.3545898 1.548,11.1316406 1.548,10.8565918 C1.548,10.581543 1.32706452,10.3585938 1.0545,10.3585938 L1.01225806,10.3585938 L1.01225806,0.995996094 L16.9877903,0.995996094 L16.9877903,10.3589355 Z" id="Shape"></path>
            <path d="M12.3540968,3.23959961 L9.6525,3.23959961 C9.37998387,3.23959961 9.159,3.46254883 9.159,3.73759766 C9.159,4.01264648 9.37993548,4.2355957 9.6525,4.2355957 L12.3540968,4.2355957 C12.6266129,4.2355957 12.8475968,4.01264648 12.8475968,3.73759766 C12.8475968,3.46254883 12.6266129,3.23959961 12.3540968,3.23959961 Z" id="Shape"></path>
            <path d="M15.5143548,5.52753906 L9.65245161,5.52753906 C9.37993548,5.52753906 9.15895161,5.75048828 9.15895161,6.02553711 C9.15895161,6.30058594 9.3798871,6.52353516 9.65245161,6.52353516 L15.5143548,6.52353516 C15.786871,6.52353516 16.0078548,6.30058594 16.0078548,6.02553711 C16.0078548,5.75048828 15.7868226,5.52753906 15.5143548,5.52753906 Z" id="Shape"></path>
            <path d="M15.5143548,7.81875 L9.65245161,7.81875 C9.37993548,7.81875 9.15895161,8.04169922 9.15895161,8.31674805 C9.15895161,8.59179688 9.3798871,8.81474609 9.65245161,8.81474609 L15.5143548,8.81474609 C15.786871,8.81474609 16.0078548,8.59179688 16.0078548,8.31674805 C16.0078548,8.04169922 15.7868226,7.81875 15.5143548,7.81875 Z" id="Shape"></path>
            <path d="M8.7258871,13.1001465 L2.88048387,13.1001465 C2.60791935,13.1001465 2.38698387,13.3230957 2.38698387,13.5981445 C2.38698387,13.8731934 2.60791935,14.0961426 2.88048387,14.0961426 L8.7258871,14.0961426 C8.99845161,14.0961426 9.2193871,13.8731934 9.2193871,13.5981445 C9.21943548,13.3230957 8.99845161,13.1001465 8.7258871,13.1001465 Z" id="Shape"></path>
            <path d="M15.5636613,15.1144043 L2.88048387,15.1144043 C2.60791935,15.1144043 2.38698387,15.3373535 2.38698387,15.6124023 C2.38698387,15.8874512 2.60791935,16.1104004 2.88048387,16.1104004 L15.5637097,16.1104004 C15.8362258,16.1104004 16.0572097,15.8874512 16.0572097,15.6124023 C16.0572097,15.3373535 15.8361774,15.1144043 15.5636613,15.1144043 Z" id="Shape"></path>
            <path d="M15.5636613,17.1314941 L2.88048387,17.1314941 C2.60791935,17.1314941 2.38698387,17.3544434 2.38698387,17.6294922 C2.38698387,17.904541 2.60791935,18.1274902 2.88048387,18.1274902 L15.5637097,18.1274902 C15.8362258,18.1274902 16.0572097,17.904541 16.0572097,17.6294922 C16.0572097,17.3544434 15.8361774,17.1314941 15.5636613,17.1314941 Z" id="Shape"></path>
            <path d="M8.21037097,20.5677246 L7.79356452,20.5677246 C7.521,20.5677246 7.30006452,20.7906738 7.30006452,21.0657227 C7.30006452,21.3407715 7.521,21.5637207 7.79356452,21.5637207 L8.21037097,21.5637207 C8.48293548,21.5637207 8.70387097,21.3407715 8.70387097,21.0657227 C8.70387097,20.7906738 8.48293548,20.5677246 8.21037097,20.5677246 Z" id="Shape"></path>
            <path d="M6.08830645,20.5677246 L2.88048387,20.5677246 C2.60791935,20.5677246 2.38698387,20.7906738 2.38698387,21.0657227 C2.38698387,21.3407715 2.60791935,21.5637207 2.88048387,21.5637207 L6.08830645,21.5637207 C6.36087097,21.5637207 6.58180645,21.3407715 6.58180645,21.0657227 C6.58180645,20.7906738 6.36082258,20.5677246 6.08830645,20.5677246 Z" id="Shape"></path>
            <path d="M6.25141935,2.54926758 C5.99869355,2.27709961 5.64179032,2.12099609 5.27220968,2.12099609 C4.90262903,2.12099609 4.54567742,2.27709961 4.293,2.54926758 C4.04032258,2.82143555 3.90914516,3.19101563 3.93319355,3.56323242 L3.99537097,4.52504883 C4.02212903,4.93867188 4.23890323,5.31728516 4.57529032,5.5378418 C4.78693548,5.67666016 5.02959677,5.74599609 5.27220968,5.74599609 C5.51482258,5.74599609 5.75748387,5.67661133 5.96912903,5.5378418 C6.30556452,5.31728516 6.52233871,4.93862305 6.54904839,4.52504883 L6.61122581,3.56323242 C6.63522581,3.1909668 6.50414516,2.82143555 6.25141935,2.54926758 Z M5.62625806,3.49838867 L5.56408065,4.46020508 C5.5575,4.56181641 5.50790323,4.65234375 5.43135484,4.70253906 C5.33462903,4.76591797 5.20969355,4.76586914 5.11291935,4.70253906 C5.03637097,4.65234375 4.98677419,4.56176758 4.98019355,4.46020508 L4.91801613,3.49838867 C4.91158065,3.39853516 4.94535484,3.30332031 5.01314516,3.23027344 C5.08093548,3.15722656 5.17291935,3.11704102 5.2721129,3.11704102 C5.37130645,3.11704102 5.46324194,3.15727539 5.53108065,3.23027344 C5.59891935,3.30327148 5.63274194,3.39848633 5.62625806,3.49838867 Z" id="Shape"></path>
            <path d="M8.44562903,8.27773437 L8.33777419,7.67705078 C8.18830645,6.84433594 7.5345,6.1796875 6.71080645,6.02314453 C6.58645161,5.99956055 6.4593871,5.98759766 6.33304839,5.98759766 L6.00827419,5.98759766 C5.8773871,5.98759766 5.75187097,6.04008789 5.65930645,6.13344727 C5.55590323,6.23779297 5.41843548,6.29526367 5.27220968,6.29526367 C5.12598387,6.29526367 4.98846774,6.23779297 4.8851129,6.13344727 C4.79259677,6.04008789 4.66703226,5.98759766 4.53614516,5.98759766 L4.21137097,5.98759766 C4.08503226,5.98759766 3.95796774,5.99956055 3.83351613,6.02319336 C3.00991935,6.17973633 2.3561129,6.84428711 2.20659677,7.67705078 L2.09874194,8.27773437 C2.07266129,8.42299805 2.11175806,8.57241211 2.20558065,8.68574219 C2.29930645,8.79902344 2.43803226,8.86450195 2.58430645,8.86450195 L7.95996774,8.86450195 C8.10624194,8.86450195 8.24496774,8.79902344 8.33874194,8.68574219 C8.43256452,8.57246094 8.47170968,8.42299805 8.44562903,8.27773437 Z M3.17535484,7.86850586 L3.17782258,7.85458984 C3.25490323,7.42524414 3.59182258,7.08261719 4.01612903,7.00200195 C4.08043548,6.98979492 4.14604839,6.98359375 4.21137097,6.98359375 L4.35401613,6.98359375 C4.8963871,7.39291992 5.64808065,7.39291992 6.19045161,6.98359375 L6.33309677,6.98359375 C6.39832258,6.98359375 6.46403226,6.98979492 6.52829032,7.00195312 C6.95264516,7.08256836 7.28956452,7.42524414 7.36664516,7.85458984 L7.36916129,7.86850586 L3.17535484,7.86850586 Z" id="Shape"></path>
            <path d="M13.9294355,10.3585449 L13.316371,10.3585449 C13.0438548,10.3585449 12.822871,10.5814941 12.822871,10.856543 C12.822871,11.1315918 13.0438548,11.354541 13.316371,11.354541 L13.9294355,11.354541 C14.2019516,11.354541 14.4229355,11.1315918 14.4229355,10.856543 C14.4229355,10.581543 14.2019516,10.3585449 13.9294355,10.3585449 Z" id="Shape"></path>
            <path d="M12.0900968,10.3585449 L11.4770323,10.3585449 C11.2045161,10.3585449 10.9835323,10.5814941 10.9835323,10.856543 C10.9835323,11.1315918 11.2045161,11.354541 11.4770323,11.354541 L12.0900968,11.354541 C12.3626129,11.354541 12.5835968,11.1315918 12.5835968,10.856543 C12.5836452,10.581543 12.3626129,10.3585449 12.0900968,10.3585449 Z" id="Shape"></path>
            <path d="M2.89374194,10.3585449 L2.28067742,10.3585449 C2.0081129,10.3585449 1.78717742,10.5814941 1.78717742,10.856543 C1.78717742,11.1315918 2.0081129,11.354541 2.28067742,11.354541 L2.89374194,11.354541 C3.16630645,11.354541 3.38724194,11.1315918 3.38724194,10.856543 C3.38724194,10.581543 3.16630645,10.3585449 2.89374194,10.3585449 Z" id="Shape"></path>
            <path d="M8.4116129,10.3585449 L7.7985,10.3585449 C7.52593548,10.3585449 7.305,10.5814941 7.305,10.856543 C7.305,11.1315918 7.52593548,11.354541 7.7985,11.354541 L8.4116129,11.354541 C8.68417742,11.354541 8.9051129,11.1315918 8.9051129,10.856543 C8.9051129,10.581543 8.68417742,10.3585449 8.4116129,10.3585449 Z" id="Shape"></path>
            <path d="M6.57232258,10.3585449 L5.95925806,10.3585449 C5.68669355,10.3585449 5.46575806,10.5814941 5.46575806,10.856543 C5.46575806,11.1315918 5.68669355,11.354541 5.95925806,11.354541 L6.57232258,11.354541 C6.8448871,11.354541 7.06582258,11.1315918 7.06582258,10.856543 C7.06582258,10.581543 6.8448871,10.3585449 6.57232258,10.3585449 Z" id="Shape"></path>
            <path d="M15.7686774,10.3585449 L15.1555161,10.3585449 C14.883,10.3585449 14.6620161,10.5814941 14.6620161,10.856543 C14.6620161,11.1315918 14.883,11.354541 15.1555161,11.354541 L15.7686774,11.354541 C16.0411935,11.354541 16.2621774,11.1315918 16.2621774,10.856543 C16.2621774,10.581543 16.0411935,10.3585449 15.7686774,10.3585449 Z" id="Shape"></path>
            <path d="M10.2508548,10.3585449 L9.63779032,10.3585449 C9.36527419,10.3585449 9.14429032,10.5814941 9.14429032,10.856543 C9.14429032,11.1315918 9.36522581,11.354541 9.63779032,11.354541 L10.2508548,11.354541 C10.523371,11.354541 10.7443548,11.1315918 10.7443548,10.856543 C10.7443548,10.581543 10.523371,10.3585449 10.2508548,10.3585449 Z" id="Shape"></path>
            <path d="M4.73308065,10.3585449 L4.12001613,10.3585449 C3.84745161,10.3585449 3.62651613,10.5814941 3.62651613,10.856543 C3.62651613,11.1315918 3.84745161,11.354541 4.12001613,11.354541 L4.73308065,11.354541 C5.00564516,11.354541 5.22658065,11.1315918 5.22658065,10.856543 C5.22658065,10.581543 5.00564516,10.3585449 4.73308065,10.3585449 Z" id="Shape"></path>
        </g>
    </g>
</svg>